<mxfile host="app.diagrams.net" agent="Mozilla/5.0 (Windows NT 10.0; Win64; x64) AppleWebKit/537.36 (KHTML, like Gecko) Chrome/130.0.0.0 Safari/537.36" version="24.8.6">
  <diagram name="Page-1" id="ssLMG0HUvEVAEniDQMZj">
    <mxGraphModel dx="989" dy="509" grid="1" gridSize="10" guides="1" tooltips="1" connect="1" arrows="1" fold="1" page="1" pageScale="1" pageWidth="827" pageHeight="1169" math="0" shadow="0">
      <root>
        <mxCell id="0" />
        <mxCell id="1" parent="0" />
        <mxCell id="-7ON_TRAR3KfDgPN6Gt4-16" style="edgeStyle=orthogonalEdgeStyle;curved=1;rounded=0;orthogonalLoop=1;jettySize=auto;html=1;exitX=1;exitY=0.25;exitDx=0;exitDy=0;elbow=vertical;" edge="1" parent="1" source="-7ON_TRAR3KfDgPN6Gt4-1" target="-7ON_TRAR3KfDgPN6Gt4-4">
          <mxGeometry relative="1" as="geometry" />
        </mxCell>
        <mxCell id="-7ON_TRAR3KfDgPN6Gt4-1" value="&lt;font style=&quot;font-size: 18px;&quot;&gt;sag-windows&lt;/font&gt;" style="rounded=1;whiteSpace=wrap;html=1;" vertex="1" parent="1">
          <mxGeometry x="130" y="270" width="120" height="60" as="geometry" />
        </mxCell>
        <mxCell id="-7ON_TRAR3KfDgPN6Gt4-4" value="&lt;font style=&quot;font-size: 18px;&quot;&gt;US-server&lt;/font&gt;" style="rounded=1;whiteSpace=wrap;html=1;" vertex="1" parent="1">
          <mxGeometry x="414" y="215" width="120" height="60" as="geometry" />
        </mxCell>
        <mxCell id="-7ON_TRAR3KfDgPN6Gt4-7" value="DNS-query" style="text;html=1;align=center;verticalAlign=middle;whiteSpace=wrap;rounded=0;" vertex="1" parent="1">
          <mxGeometry x="290" y="215" width="60" height="30" as="geometry" />
        </mxCell>
        <mxCell id="-7ON_TRAR3KfDgPN6Gt4-8" value="DNS: us.yourjona.tech" style="text;html=1;align=center;verticalAlign=middle;whiteSpace=wrap;rounded=0;" vertex="1" parent="1">
          <mxGeometry x="160" y="340" width="60" height="30" as="geometry" />
        </mxCell>
        <mxCell id="-7ON_TRAR3KfDgPN6Gt4-10" value="" style="shape=flexArrow;endArrow=classic;startArrow=classic;html=1;rounded=0;" edge="1" parent="1">
          <mxGeometry width="100" height="100" relative="1" as="geometry">
            <mxPoint x="473.66" y="325" as="sourcePoint" />
            <mxPoint x="473.66" y="275" as="targetPoint" />
          </mxGeometry>
        </mxCell>
        <mxCell id="-7ON_TRAR3KfDgPN6Gt4-17" style="edgeStyle=orthogonalEdgeStyle;curved=1;rounded=0;orthogonalLoop=1;jettySize=auto;html=1;exitX=0;exitY=0.5;exitDx=0;exitDy=0;elbow=vertical;" edge="1" parent="1" source="-7ON_TRAR3KfDgPN6Gt4-11" target="-7ON_TRAR3KfDgPN6Gt4-1">
          <mxGeometry relative="1" as="geometry" />
        </mxCell>
        <mxCell id="-7ON_TRAR3KfDgPN6Gt4-11" value="&lt;font style=&quot;font-size: 18px;&quot;&gt;DNS-server&lt;/font&gt;" style="rounded=1;whiteSpace=wrap;html=1;" vertex="1" parent="1">
          <mxGeometry x="414" y="325" width="120" height="60" as="geometry" />
        </mxCell>
        <mxCell id="-7ON_TRAR3KfDgPN6Gt4-14" value="DNS-response" style="text;html=1;align=center;verticalAlign=middle;whiteSpace=wrap;rounded=0;" vertex="1" parent="1">
          <mxGeometry x="290" y="350" width="60" height="30" as="geometry" />
        </mxCell>
        <mxCell id="-7ON_TRAR3KfDgPN6Gt4-19" value="&lt;b&gt;interface :&lt;/b&gt;&lt;div&gt;&amp;nbsp;{“Ethernet”：“172.50.10.144”}&lt;div&gt;{“ZeroTier One”：“172.30.222.18”}&lt;/div&gt;&lt;div&gt;{“vEthernet”：“172.23.208.1”}&lt;/div&gt;&lt;/div&gt;" style="ellipse;whiteSpace=wrap;html=1;" vertex="1" parent="1">
          <mxGeometry x="60" y="160" width="260" height="80" as="geometry" />
        </mxCell>
        <mxCell id="-7ON_TRAR3KfDgPN6Gt4-22" value="" style="endArrow=classic;startArrow=classic;html=1;rounded=0;elbow=vertical;exitX=0.5;exitY=0;exitDx=0;exitDy=0;dashed=1;" edge="1" parent="1" source="-7ON_TRAR3KfDgPN6Gt4-1">
          <mxGeometry width="50" height="50" relative="1" as="geometry">
            <mxPoint x="140" y="290" as="sourcePoint" />
            <mxPoint x="190" y="240" as="targetPoint" />
          </mxGeometry>
        </mxCell>
      </root>
    </mxGraphModel>
  </diagram>
</mxfile>
